<svg width="267" height="196" viewBox="0 0 267 196" fill="none" xmlns="http://www.w3.org/2000/svg">
<path d="M190.181 176.001C192.968 176.001 195.611 176.041 198.248 175.981C199.33 175.955 199.724 176.264 199.716 177.437C199.673 183.08 199.696 188.721 199.758 194.365C199.77 195.523 199.489 195.954 198.268 195.954C179.962 195.919 161.655 195.919 143.346 195.957C142.057 195.957 141.745 195.526 141.785 194.29C141.87 191.647 141.81 189.002 141.81 186.151C139.139 186.151 136.647 186.151 134.155 186.151C132.25 186.151 132.258 186.151 132.261 184.171C132.27 175.538 132.27 166.904 132.275 158.271C132.275 157.845 132.275 157.42 132.275 156.893H113.452V176.001C116.163 176.001 118.803 176.068 121.435 175.972C122.701 175.926 123.03 176.334 123.019 177.601C122.965 183.147 123.019 188.695 123.03 194.241C123.03 194.718 123.03 195.196 123.03 195.835C122.434 195.87 121.931 195.928 121.432 195.928C103.219 195.934 85.0063 195.922 66.7936 195.96C65.4935 195.96 65.0677 195.595 65.1188 194.249C65.2181 191.61 65.1472 188.961 65.1472 186.134C62.5214 186.134 59.9865 186.134 57.4487 186.134C56.213 186.134 55.5932 185.507 55.5894 184.252C55.5951 156.375 55.6036 128.498 55.6121 100.62C55.6121 99.859 55.6121 99.0979 55.6121 98.1428C52.8927 98.1428 50.3067 98.0704 47.7264 98.1717C46.3922 98.2238 45.904 97.8765 45.9693 96.4351C46.0857 93.8419 46.0033 91.24 46.0033 88.4152C43.7693 88.4152 41.6148 88.4152 39.4574 88.4152C37.4155 88.4152 36.3955 87.3723 36.3974 85.2865C36.3974 77.1363 36.3974 68.9832 36.3945 60.833C36.3945 60.2107 36.3945 59.5914 36.3945 58.7954H45.9551V49.0679H74.9887V59.0212H65.6581V78.3142C68.3463 78.3142 70.9862 78.3721 73.6205 78.2882C74.8127 78.2506 75.1619 78.6471 75.125 79.8453C75.0455 82.5341 75.0994 85.2257 75.0994 88.0071H141.833V78.6037H132.326V39.5197H122.752V0.288177H151.692V9.91156H161.303V19.5755H208.905V9.91735H218.488V0.299754C218.936 0.238975 219.249 0.16083 219.561 0.16083C225.238 0.146359 230.913 0.16083 236.59 0.123205C237.546 0.117417 238.049 0.265024 238.046 1.44009C238.003 13.787 238.012 26.1338 238.003 38.4807C238.003 38.7643 237.947 39.0451 237.896 39.5082H228.5V48.9145C229.09 48.9405 229.635 48.9868 230.183 48.9868C238.651 48.9868 247.118 49.0042 255.586 48.9434C256.895 48.9347 257.306 49.3197 257.258 50.6539C257.162 53.2529 257.23 55.8578 257.23 58.7115C259.08 58.7115 260.855 58.6912 262.629 58.7173C263.943 58.7375 265.808 58.3034 266.427 58.998C267.139 59.7968 266.821 61.6173 266.824 62.995C266.847 70.8095 266.833 78.621 266.83 86.4355C266.83 87.0086 266.83 87.5845 266.83 88.3544H257.278V98.0588H247.678V107.865H238.06V117.667H190.192V175.998L190.181 176.001ZM170.708 146.613V175.966H180.18V146.804C179.593 146.804 179.087 146.812 178.582 146.804C175.945 146.757 173.311 146.705 170.674 146.656V136.978H180.308V117.439H189.908V107.642H237.632V98.0009C236.797 98.0009 236.093 98.0009 235.386 98.0009C224.032 98.0009 212.677 98.0009 201.323 98.0009C200.039 98.0009 199.398 97.3546 199.398 96.0618C199.398 93.4801 199.398 90.8984 199.398 88.1778H189.991V78.4532H199.452V88.0794H237.666V68.659H228.162V58.8186H209.078V49.0823H218.471V39.2708H208.927V29.6474H199.347C199.347 30.2842 199.347 30.8051 199.347 31.329C199.347 36.3939 199.367 41.4589 199.341 46.5238C199.327 49.2705 199.767 49.0013 196.962 49.0187C196.111 49.0244 195.259 49.0187 194.408 49.0187C192.912 49.0187 191.416 49.0187 189.764 49.0187V68.5925H161.113V88.2762H170.509V107.63C169.944 107.63 169.481 107.63 169.022 107.63C163.676 107.63 158.328 107.671 152.983 107.601C151.712 107.584 151.348 107.986 151.402 109.245C151.496 111.413 151.36 113.589 151.453 115.754C151.51 117.045 151.189 117.543 149.824 117.471C147.559 117.349 145.282 117.465 143.014 117.421C142.154 117.404 141.842 117.705 141.864 118.585C141.913 120.318 141.876 122.058 141.876 123.794C141.876 126.064 140.775 127.201 138.574 127.207C136.516 127.21 134.455 127.207 132.238 127.207V136.981H122.777V146.81H141.978V185.731H170.566V176.114H161.167V146.778C162.144 146.778 163.029 146.792 163.918 146.775C166.18 146.729 168.443 146.668 170.702 146.619L170.708 146.613ZM65.4225 117.499V185.752H93.9054V176.166H84.396V136.891H74.8922V117.499H65.4197H65.4225ZM65.2862 88.1981V78.3837H55.6036V58.9951H46.1055C46.1055 59.6463 46.1055 60.176 46.1055 60.7027C46.1055 69.2842 46.1396 77.8656 46.0743 86.4471C46.063 87.8566 46.4547 88.256 47.8172 88.1952C50.3976 88.0823 52.9836 88.1634 55.7427 88.1634V97.7925H74.7077V88.201H65.2862V88.1981ZM142.069 39.3605C148.217 39.3605 154.215 39.3692 160.213 39.3316C160.5 39.3316 161.028 38.9119 161.031 38.6775C161.088 35.6588 161.068 32.6401 161.068 29.4391H151.626C151.626 26.8082 151.626 24.3597 151.626 21.914C151.626 19.3034 151.754 19.7289 149.398 19.6883C147.366 19.6536 145.33 19.7433 143.301 19.6594C142.174 19.6131 141.842 19.998 141.859 21.1326C141.935 26.8661 141.941 32.5996 141.975 38.3302C141.975 38.6109 142.023 38.8888 142.066 39.3605H142.069ZM256.832 88.091V68.7632H247.479V88.091H256.832ZM103.497 176.007V156.664H94.0871V176.007H103.497ZM103.679 185.72H113.086V176.287H103.679V185.72ZM189.772 185.772V176.27H180.388V185.772H189.772Z" fill="#2400FF"/>
<rect x="100.518" y="48.6484" width="8.66534" height="10.3984" fill="#2400FF"/>
<rect x="17.3301" y="67.7129" width="8.66534" height="10.3984" fill="#2400FF"/>
<rect x="100.518" y="38.25" width="8.66534" height="10.3984" fill="#2400FF"/>
<rect x="17.3301" y="57.3145" width="8.66534" height="10.3984" fill="#2400FF"/>
<rect x="83.1875" y="48.6484" width="8.66534" height="10.3984" fill="#2400FF"/>
<rect y="67.7129" width="8.66534" height="10.3984" fill="#2400FF"/>
<rect x="83.1875" y="38.25" width="8.66534" height="10.3984" fill="#2400FF"/>
<rect y="57.3145" width="8.66534" height="10.3984" fill="#2400FF"/>
</svg>
