<svg width="124" height="128" viewBox="0 0 124 128" fill="none" xmlns="http://www.w3.org/2000/svg">
<path fill-rule="evenodd" clip-rule="evenodd" d="M63.9967 8.03711H99.6365V20.7018H111.977V35.8426L105.238 36.8574L103.939 43.9205H99.6365V47.8173H83.8867L83.8867 76.1503L63.9966 76.1503V61.2127H51.8992V76.1505H32.0091L32.0091 61.2127H31.1167V46.762H32.0091L32.0091 41.1602H51.8992V46.762H63.9966V25.3291H63.9967V20.7018V8.03711Z" fill="white"/>
<path d="M32.0084 29.3069V24.0303H23.9712V29.3069V34.5846V40.0235H36.1894V35.802L32.0084 34.5846V29.3069Z" fill="white"/>
<mask id="path-3-inside-1_1693_8774" fill="white">
<path fill-rule="evenodd" clip-rule="evenodd" d="M112.005 20.0013V23.9997H116V36.0003H112V27.9996H108V36.0003H112V40.0002H108V44.0002H104V40.0002H87.9995V36.002H84.0041V32.002H88.004V36.0003H104V27.9996H100V23.9997H91.9995V19.9997H95.9994V15.9998H91.9995V11.9998H87.9995V20.0005H83.9996V28.0012H71.9989V36.0019H75.9989V44.0026H67.9982V48.0026H63.9982V52.0025H59.9983V56.0024H55.9983V60.0024H63.999V76.003H59.9991V64.0023H51.9984V72.003H47.9985V64.0023H43.9985V72.003H39.9986V56.0024H35.9986V48.0017H31.9987V76.003H27.9988V40.0018H24.0012V36.0019H28.0012V40.001H35.9994V36.0011H31.9995V32.0017H28.0012V28.001V24.001H24.0012V20.0011H28.0012H32.0011H36.0019V24.001H32.0011V28.001V32.0012H40.0002V36.0011H64.0015V32.0012H60.0015V16.0006H56.0016V0H68.0022V3.99994H72.0022V7.99988H92.0035V3.99994H96.0035V0H104.004V16.0014H100.004V20.0013H112.005ZM64.0023 12.0006V8.0007H68.0022V12.0006H72.0022V16.0006H64.0015V12.0006H64.0023ZM48.0033 76.0042V72.0042H44.0025V76.0042H40.0026H36.0026H32.0019V80.0049H36.0026H40.0026H44.0025H48.0033H52.0032H56.0032V76.0042V72.0042H52.0032V76.0042H48.0033ZM80.0031 72.0042V76.0042H84.0038V72.0042H88.0038V76.0042V80.0049H84.0038H80.0031H76.0031H72.0032H68.0024H64.0025V76.0042H68.0024H72.0032H76.0031V72.0042H80.0031ZM76.004 64.0032V60.0033H72.0041V64.0032V68.004V72.0039H76.004V68.004V64.0032ZM80.0024 56.0033V52.0025V48.0026H84.0032V52.0025V56.0033V60.0032V64.0032V68.0039V72.0039H80.0024V68.0039V64.0032V60.0032H76.0025V56.0033H80.0024ZM96.0047 44.0025H92.0039H88.004H84.0041V48.0024H88.004H92.0039H96.0047H100.005H104.005V44.0025H100.005H96.0047ZM24.0008 24.0012V28.0011V32.0019V36.0018H20V32.0019V28.0011V24.0012H24.0008Z"/>
</mask>
<path fill-rule="evenodd" clip-rule="evenodd" d="M112.005 20.0013V23.9997H116V36.0003H112V27.9996H108V36.0003H112V40.0002H108V44.0002H104V40.0002H87.9995V36.002H84.0041V32.002H88.004V36.0003H104V27.9996H100V23.9997H91.9995V19.9997H95.9994V15.9998H91.9995V11.9998H87.9995V20.0005H83.9996V28.0012H71.9989V36.0019H75.9989V44.0026H67.9982V48.0026H63.9982V52.0025H59.9983V56.0024H55.9983V60.0024H63.999V76.003H59.9991V64.0023H51.9984V72.003H47.9985V64.0023H43.9985V72.003H39.9986V56.0024H35.9986V48.0017H31.9987V76.003H27.9988V40.0018H24.0012V36.0019H28.0012V40.001H35.9994V36.0011H31.9995V32.0017H28.0012V28.001V24.001H24.0012V20.0011H28.0012H32.0011H36.0019V24.001H32.0011V28.001V32.0012H40.0002V36.0011H64.0015V32.0012H60.0015V16.0006H56.0016V0H68.0022V3.99994H72.0022V7.99988H92.0035V3.99994H96.0035V0H104.004V16.0014H100.004V20.0013H112.005ZM64.0023 12.0006V8.0007H68.0022V12.0006H72.0022V16.0006H64.0015V12.0006H64.0023ZM48.0033 76.0042V72.0042H44.0025V76.0042H40.0026H36.0026H32.0019V80.0049H36.0026H40.0026H44.0025H48.0033H52.0032H56.0032V76.0042V72.0042H52.0032V76.0042H48.0033ZM80.0031 72.0042V76.0042H84.0038V72.0042H88.0038V76.0042V80.0049H84.0038H80.0031H76.0031H72.0032H68.0024H64.0025V76.0042H68.0024H72.0032H76.0031V72.0042H80.0031ZM76.004 64.0032V60.0033H72.0041V64.0032V68.004V72.0039H76.004V68.004V64.0032ZM80.0024 56.0033V52.0025V48.0026H84.0032V52.0025V56.0033V60.0032V64.0032V68.0039V72.0039H80.0024V68.0039V64.0032V60.0032H76.0025V56.0033H80.0024ZM96.0047 44.0025H92.0039H88.004H84.0041V48.0024H88.004H92.0039H96.0047H100.005H104.005V44.0025H100.005H96.0047ZM24.0008 24.0012V28.0011V32.0019V36.0018H20V32.0019V28.0011V24.0012H24.0008Z" fill="black"/>
<path d="M112.005 23.9997H100.005V35.9997H112.005V23.9997ZM112.005 20.0013H124.005V8.00133H112.005V20.0013ZM116 23.9997H128V11.9997H116V23.9997ZM116 36.0003V48.0003H128V36.0003H116ZM112 27.9996H124V15.9996H112V27.9996ZM108 27.9996V15.9996H96V27.9996H108ZM108 36.0003H96V48.0003H108V36.0003ZM112 40.0002V52.0002H124V40.0002H112ZM108 40.0002V28.0002H96V40.0002H108ZM108 44.0002V56.0002H120V44.0002H108ZM104 44.0002H92.0001V56.0002H104V44.0002ZM104 40.0002H116V28.0002H104V40.0002ZM87.9995 40.0002H75.9995V52.0002H87.9995V40.0002ZM87.9995 36.002H99.9995V24.002H87.9995V36.002ZM84.0041 36.002H72.0041V48.002H84.0041V36.002ZM84.0041 32.002V20.002H72.0041V32.002H84.0041ZM88.004 32.002H100.004V20.002H88.004V32.002ZM88.004 36.0003H76.004V48.0003H88.004V36.0003ZM104 36.0003V48.0003H116V36.0003H104ZM104 27.9996H116V15.9996H104V27.9996ZM100 27.9996H88.0002V39.9996H100V27.9996ZM100 23.9997H112V11.9997H100V23.9997ZM91.9995 23.9997H79.9995V35.9997H91.9995V23.9997ZM91.9995 19.9997V7.99971H79.9995V19.9997H91.9995ZM95.9994 19.9997V31.9997H107.999V19.9997H95.9994ZM95.9994 15.9998H107.999V3.99977H95.9994V15.9998ZM91.9995 15.9998H79.9995V27.9998H91.9995V15.9998ZM91.9995 11.9998H103.999V-0.000173302H91.9995V11.9998ZM87.9995 11.9998V-0.000173302H75.9995V11.9998H87.9995ZM87.9995 20.0005V32.0005H99.9995V20.0005H87.9995ZM83.9996 20.0005V8.00052H71.9996V20.0005H83.9996ZM83.9996 28.0012V40.0012H95.9996V28.0012H83.9996ZM71.9989 28.0012V16.0012H59.9989V28.0012H71.9989ZM71.9989 36.0019H59.9989V48.0019H71.9989V36.0019ZM75.9989 36.0019H87.9989V24.0019H75.9989V36.0019ZM75.9989 44.0026V56.0026H87.9989V44.0026H75.9989ZM67.9982 44.0026V32.0026H55.9982V44.0026H67.9982ZM67.9982 48.0026V60.0026H79.9982V48.0026H67.9982ZM63.9982 48.0026V36.0026H51.9982V48.0026H63.9982ZM63.9982 52.0025V64.0025H75.9982V52.0025H63.9982ZM59.9983 52.0025V40.0025H47.9983V52.0025H59.9983ZM59.9983 56.0024V68.0024H71.9983V56.0024H59.9983ZM55.9983 56.0024V44.0024H43.9983V56.0024H55.9983ZM55.9983 60.0024H43.9983V72.0024H55.9983V60.0024ZM63.999 60.0024H75.999V48.0024H63.999V60.0024ZM63.999 76.003V88.003H75.999V76.003H63.999ZM59.9991 76.003H47.9991V88.003H59.9991V76.003ZM59.9991 64.0023H71.9991V52.0023H59.9991V64.0023ZM51.9984 64.0023V52.0023H39.9984V64.0023H51.9984ZM51.9984 72.003V84.003H63.9984V72.003H51.9984ZM47.9985 72.003H35.9985V84.003H47.9985V72.003ZM47.9985 64.0023H59.9985V52.0023H47.9985V64.0023ZM43.9985 64.0023V52.0023H31.9985V64.0023H43.9985ZM43.9985 72.003V84.003H55.9985V72.003H43.9985ZM39.9986 72.003H27.9986V84.003H39.9986V72.003ZM39.9986 56.0024H51.9986V44.0024H39.9986V56.0024ZM35.9986 56.0024H23.9986V68.0024H35.9986V56.0024ZM35.9986 48.0017H47.9986V36.0017H35.9986V48.0017ZM31.9987 48.0017V36.0017H19.9987V48.0017H31.9987ZM31.9987 76.003V88.003H43.9987V76.003H31.9987ZM27.9988 76.003H15.9988V88.003H27.9988V76.003ZM27.9988 40.0018H39.9988V28.0018H27.9988V40.0018ZM24.0012 40.0018H12.0012V52.0018H24.0012V40.0018ZM24.0012 36.0019V24.0019H12.0012V36.0019H24.0012ZM28.0012 36.0019H40.0012V24.0019H28.0012V36.0019ZM28.0012 40.001H16.0012V52.001H28.0012V40.001ZM35.9994 40.001V52.001H47.9994V40.001H35.9994ZM35.9994 36.0011H47.9994V24.0011H35.9994V36.0011ZM31.9995 36.0011H19.9995V48.0011H31.9995V36.0011ZM31.9995 32.0017H43.9995V20.0017H31.9995V32.0017ZM28.0012 32.0017H16.0012V44.0017H28.0012V32.0017ZM28.0012 24.001H40.0012V12.001H28.0012V24.001ZM24.0012 24.001H12.0012V36.001H24.0012V24.001ZM24.0012 20.0011V8.00109H12.0012V20.0011H24.0012ZM36.0019 20.0011H48.0019V8.00109H36.0019V20.0011ZM36.0019 24.001V36.001H48.0019V24.001H36.0019ZM32.0011 24.001V12.001H20.0011V24.001H32.0011ZM32.0011 32.0012H20.0011V44.0012H32.0011V32.0012ZM40.0002 32.0012H52.0002V20.0012H40.0002V32.0012ZM40.0002 36.0011H28.0002V48.0011H40.0002V36.0011ZM64.0015 36.0011V48.0011H76.0015V36.0011H64.0015ZM64.0015 32.0012H76.0015V20.0012H64.0015V32.0012ZM60.0015 32.0012H48.0015V44.0012H60.0015V32.0012ZM60.0015 16.0006H72.0015V4.00058H60.0015V16.0006ZM56.0016 16.0006H44.0016V28.0006H56.0016V16.0006ZM56.0016 0V-12H44.0016V0H56.0016ZM68.0022 0H80.0022V-12H68.0022V0ZM68.0022 3.99994H56.0022V15.9999H68.0022V3.99994ZM72.0022 3.99994H84.0022V-8.00006H72.0022V3.99994ZM72.0022 7.99988H60.0022V19.9999H72.0022V7.99988ZM92.0035 7.99988V19.9999H104.004V7.99988H92.0035ZM92.0035 3.99994V-8.00006H80.0035V3.99994H92.0035ZM96.0035 3.99994V15.9999H108.003V3.99994H96.0035ZM96.0035 0V-12H84.0035V0H96.0035ZM104.004 0H116.004V-12H104.004V0ZM104.004 16.0014V28.0014H116.004V16.0014H104.004ZM100.004 16.0014V4.00139H88.0042V16.0014H100.004ZM100.004 20.0013H88.0042V32.0013H100.004V20.0013ZM64.0023 8.0007V-3.9993H52.0023V8.0007H64.0023ZM64.0023 12.0006V24.0006H76.0023V12.0006H64.0023ZM68.0022 8.0007H80.0022V-3.9993H68.0022V8.0007ZM68.0022 12.0006H56.0022V24.0006H68.0022V12.0006ZM72.0022 12.0006H84.0022V0.000639229H72.0022V12.0006ZM72.0022 16.0006V28.0006H84.0022V16.0006H72.0022ZM64.0015 16.0006H52.0015V28.0006H64.0015V16.0006ZM64.0015 12.0006V0.000639229H52.0015V12.0006H64.0015ZM48.0033 72.0042H60.0033V60.0042H48.0033V72.0042ZM48.0033 76.0042H36.0033V88.0042H48.0033V76.0042ZM44.0025 72.0042V60.0042H32.0025V72.0042H44.0025ZM44.0025 76.0042V88.0042H56.0025V76.0042H44.0025ZM32.0019 76.0042V64.0042H20.0019V76.0042H32.0019ZM32.0019 80.0049H20.0019V92.0049H32.0019V80.0049ZM56.0032 80.0049V92.0049H68.0032V80.0049H56.0032ZM56.0032 72.0042H68.0032V60.0042H56.0032V72.0042ZM52.0032 72.0042V60.0042H40.0032V72.0042H52.0032ZM52.0032 76.0042V88.0042H64.0032V76.0042H52.0032ZM80.0031 76.0042H68.0031V88.0042H80.0031V76.0042ZM80.0031 72.0042H92.0031V60.0042H80.0031V72.0042ZM84.0038 76.0042V88.0042H96.0038V76.0042H84.0038ZM84.0038 72.0042V60.0042H72.0038V72.0042H84.0038ZM88.0038 72.0042H100.004V60.0042H88.0038V72.0042ZM88.0038 80.0049V92.0049H100.004V80.0049H88.0038ZM64.0025 80.0049H52.0025V92.0049H64.0025V80.0049ZM64.0025 76.0042V64.0042H52.0025V76.0042H64.0025ZM76.0031 76.0042V88.0042H88.0031V76.0042H76.0031ZM76.0031 72.0042V60.0042H64.0031V72.0042H76.0031ZM76.004 60.0033H88.004V48.0033H76.004V60.0033ZM72.0041 60.0033V48.0033H60.0041V60.0033H72.0041ZM72.0041 72.0039H60.0041V84.0039H72.0041V72.0039ZM76.004 72.0039V84.0039H88.004V72.0039H76.004ZM80.0024 56.0033V68.0033H92.0024V56.0033H80.0024ZM80.0024 48.0026V36.0026H68.0024V48.0026H80.0024ZM84.0032 48.0026H96.0032V36.0026H84.0032V48.0026ZM84.0032 72.0039V84.0039H96.0032V72.0039H84.0032ZM80.0024 72.0039H68.0024V84.0039H80.0024V72.0039ZM80.0024 60.0032H92.0024V48.0032H80.0024V60.0032ZM76.0025 60.0032H64.0025V72.0032H76.0025V60.0032ZM76.0025 56.0033V44.0033H64.0025V56.0033H76.0025ZM84.0041 44.0025V32.0025H72.0041V44.0025H84.0041ZM84.0041 48.0024H72.0041V60.0024H84.0041V48.0024ZM104.005 48.0024V60.0024H116.005V48.0024H104.005ZM104.005 44.0025H116.005V32.0025H104.005V44.0025ZM24.0008 24.0012H36.0008V12.0012H24.0008V24.0012ZM24.0008 36.0018V48.0018H36.0008V36.0018H24.0008ZM20 36.0018H8V48.0018H20V36.0018ZM20 24.0012V12.0012H8V24.0012H20ZM124.005 23.9997V20.0013H100.005V23.9997H124.005ZM116 11.9997H112.005V35.9997H116V11.9997ZM128 36.0003V23.9997H104V36.0003H128ZM112 48.0003H116V24.0003H112V48.0003ZM124 36.0003V27.9996H100V36.0003H124ZM112 15.9996H108V39.9996H112V15.9996ZM96 27.9996V36.0003H120V27.9996H96ZM108 48.0003H112V24.0003H108V48.0003ZM124 40.0002V36.0003H100V40.0002H124ZM108 52.0002H112V28.0002H108V52.0002ZM120 44.0002V40.0002H96V44.0002H120ZM104 56.0002H108V32.0002H104V56.0002ZM92.0001 40.0002V44.0002H116V40.0002H92.0001ZM87.9995 52.0002H104V28.0002H87.9995V52.0002ZM75.9995 36.002V40.0002H99.9995V36.002H75.9995ZM84.0041 48.002H87.9995V24.002H84.0041V48.002ZM72.0041 32.002V36.002H96.0041V32.002H72.0041ZM88.004 20.002H84.0041V44.002H88.004V20.002ZM100.004 36.0003V32.002H76.004V36.0003H100.004ZM104 24.0003H88.004V48.0003H104V24.0003ZM92.0001 27.9996V36.0003H116V27.9996H92.0001ZM100 39.9996H104V15.9996H100V39.9996ZM88.0002 23.9997V27.9996H112V23.9997H88.0002ZM91.9995 35.9997H100V11.9997H91.9995V35.9997ZM79.9995 19.9997V23.9997H103.999V19.9997H79.9995ZM95.9994 7.99971H91.9995V31.9997H95.9994V7.99971ZM83.9994 15.9998V19.9997H107.999V15.9998H83.9994ZM91.9995 27.9998H95.9994V3.99977H91.9995V27.9998ZM79.9995 11.9998V15.9998H103.999V11.9998H79.9995ZM87.9995 23.9998H91.9995V-0.000173302H87.9995V23.9998ZM99.9995 20.0005V11.9998H75.9995V20.0005H99.9995ZM83.9996 32.0005H87.9995V8.00052H83.9996V32.0005ZM95.9996 28.0012V20.0005H71.9996V28.0012H95.9996ZM71.9989 40.0012H83.9996V16.0012H71.9989V40.0012ZM83.9989 36.0019V28.0012H59.9989V36.0019H83.9989ZM75.9989 24.0019H71.9989V48.0019H75.9989V24.0019ZM87.9989 44.0026V36.0019H63.9989V44.0026H87.9989ZM67.9982 56.0026H75.9989V32.0026H67.9982V56.0026ZM79.9982 48.0026V44.0026H55.9982V48.0026H79.9982ZM63.9982 60.0026H67.9982V36.0026H63.9982V60.0026ZM75.9982 52.0025V48.0026H51.9982V52.0025H75.9982ZM59.9983 64.0025H63.9982V40.0025H59.9983V64.0025ZM71.9983 56.0024V52.0025H47.9983V56.0024H71.9983ZM55.9983 68.0024H59.9983V44.0024H55.9983V68.0024ZM67.9983 60.0024V56.0024H43.9983V60.0024H67.9983ZM63.999 48.0024H55.9983V72.0024H63.999V48.0024ZM75.999 76.003V60.0024H51.999V76.003H75.999ZM59.9991 88.003H63.999V64.003H59.9991V88.003ZM47.9991 64.0023V76.003H71.9991V64.0023H47.9991ZM51.9984 76.0023H59.9991V52.0023H51.9984V76.0023ZM63.9984 72.003V64.0023H39.9984V72.003H63.9984ZM47.9985 84.003H51.9984V60.003H47.9985V84.003ZM35.9985 64.0023V72.003H59.9985V64.0023H35.9985ZM43.9985 76.0023H47.9985V52.0023H43.9985V76.0023ZM55.9985 72.003V64.0023H31.9985V72.003H55.9985ZM39.9986 84.003H43.9985V60.003H39.9986V84.003ZM27.9986 56.0024V72.003H51.9986V56.0024H27.9986ZM35.9986 68.0024H39.9986V44.0024H35.9986V68.0024ZM23.9986 48.0017V56.0024H47.9986V48.0017H23.9986ZM31.9987 60.0017H35.9986V36.0017H31.9987V60.0017ZM43.9987 76.003V48.0017H19.9987V76.003H43.9987ZM27.9988 88.003H31.9987V64.003H27.9988V88.003ZM15.9988 40.0018V76.003H39.9988V40.0018H15.9988ZM24.0012 52.0018H27.9988V28.0018H24.0012V52.0018ZM12.0012 36.0019V40.0018H36.0012V36.0019H12.0012ZM28.0012 24.0019H24.0012V48.0019H28.0012V24.0019ZM40.0012 40.001V36.0019H16.0012V40.001H40.0012ZM35.9994 28.001H28.0012V52.001H35.9994V28.001ZM23.9994 36.0011V40.001H47.9994V36.0011H23.9994ZM31.9995 48.0011H35.9994V24.0011H31.9995V48.0011ZM19.9995 32.0017V36.0011H43.9995V32.0017H19.9995ZM28.0012 44.0017H31.9995V20.0017H28.0012V44.0017ZM16.0012 28.001V32.0017H40.0012V28.001H16.0012ZM16.0012 24.001V28.001H40.0012V24.001H16.0012ZM24.0012 36.001H28.0012V12.001H24.0012V36.001ZM12.0012 20.0011V24.001H36.0012V20.0011H12.0012ZM28.0012 8.00109H24.0012V32.0011H28.0012V8.00109ZM32.0011 8.00109H28.0012V32.0011H32.0011V8.00109ZM36.0019 8.00109H32.0011V32.0011H36.0019V8.00109ZM48.0019 24.001V20.0011H24.0019V24.001H48.0019ZM32.0011 36.001H36.0019V12.001H32.0011V36.001ZM44.0011 28.001V24.001H20.0011V28.001H44.0011ZM44.0011 32.0012V28.001H20.0011V32.0012H44.0011ZM40.0002 20.0012H32.0011V44.0012H40.0002V20.0012ZM52.0002 36.0011V32.0012H28.0002V36.0011H52.0002ZM64.0015 24.0011H40.0002V48.0011H64.0015V24.0011ZM52.0015 32.0012V36.0011H76.0015V32.0012H52.0015ZM60.0015 44.0012H64.0015V20.0012H60.0015V44.0012ZM48.0015 16.0006V32.0012H72.0015V16.0006H48.0015ZM56.0016 28.0006H60.0015V4.00058H56.0016V28.0006ZM44.0016 0V16.0006H68.0016V0H44.0016ZM68.0022 -12H56.0016V12H68.0022V-12ZM80.0022 3.99994V0H56.0022V3.99994H80.0022ZM72.0022 -8.00006H68.0022V15.9999H72.0022V-8.00006ZM84.0022 7.99988V3.99994H60.0022V7.99988H84.0022ZM92.0035 -4.00012H72.0022V19.9999H92.0035V-4.00012ZM80.0035 3.99994V7.99988H104.004V3.99994H80.0035ZM96.0035 -8.00006H92.0035V15.9999H96.0035V-8.00006ZM84.0035 0V3.99994H108.003V0H84.0035ZM104.004 -12H96.0035V12H104.004V-12ZM116.004 16.0014V0H92.0042V16.0014H116.004ZM100.004 28.0014H104.004V4.00139H100.004V28.0014ZM112.004 20.0013V16.0014H88.0042V20.0013H112.004ZM112.005 8.00133H100.004V32.0013H112.005V8.00133ZM52.0023 8.0007V12.0006H76.0023V8.0007H52.0023ZM68.0022 -3.9993H64.0023V20.0007H68.0022V-3.9993ZM80.0022 12.0006V8.0007H56.0022V12.0006H80.0022ZM72.0022 0.000639229H68.0022V24.0006H72.0022V0.000639229ZM84.0022 16.0006V12.0006H60.0022V16.0006H84.0022ZM64.0015 28.0006H72.0022V4.00058H64.0015V28.0006ZM52.0015 12.0006V16.0006H76.0015V12.0006H52.0015ZM64.0023 0.000639229H64.0015V24.0006H64.0023V0.000639229ZM36.0033 72.0042V76.0042H60.0033V72.0042H36.0033ZM44.0025 84.0042H48.0033V60.0042H44.0025V84.0042ZM56.0025 76.0042V72.0042H32.0025V76.0042H56.0025ZM40.0026 88.0042H44.0025V64.0042H40.0026V88.0042ZM36.0026 88.0042H40.0026V64.0042H36.0026V88.0042ZM32.0019 88.0042H36.0026V64.0042H32.0019V88.0042ZM44.0019 80.0049V76.0042H20.0019V80.0049H44.0019ZM36.0026 68.0049H32.0019V92.0049H36.0026V68.0049ZM40.0026 68.0049H36.0026V92.0049H40.0026V68.0049ZM44.0025 68.0049H40.0026V92.0049H44.0025V68.0049ZM48.0033 68.0049H44.0025V92.0049H48.0033V68.0049ZM52.0032 68.0049H48.0033V92.0049H52.0032V68.0049ZM56.0032 68.0049H52.0032V92.0049H56.0032V68.0049ZM44.0032 76.0042V80.0049H68.0032V76.0042H44.0032ZM44.0032 72.0042V76.0042H68.0032V72.0042H44.0032ZM52.0032 84.0042H56.0032V60.0042H52.0032V84.0042ZM64.0032 76.0042V72.0042H40.0032V76.0042H64.0032ZM48.0033 88.0042H52.0032V64.0042H48.0033V88.0042ZM92.0031 76.0042V72.0042H68.0031V76.0042H92.0031ZM84.0038 64.0042H80.0031V88.0042H84.0038V64.0042ZM72.0038 72.0042V76.0042H96.0038V72.0042H72.0038ZM88.0038 60.0042H84.0038V84.0042H88.0038V60.0042ZM100.004 76.0042V72.0042H76.0038V76.0042H100.004ZM100.004 80.0049V76.0042H76.0038V80.0049H100.004ZM84.0038 92.0049H88.0038V68.0049H84.0038V92.0049ZM80.0031 92.0049H84.0038V68.0049H80.0031V92.0049ZM76.0031 92.0049H80.0031V68.0049H76.0031V92.0049ZM72.0032 92.0049H76.0031V68.0049H72.0032V92.0049ZM68.0024 92.0049H72.0032V68.0049H68.0024V92.0049ZM64.0025 92.0049H68.0024V68.0049H64.0025V92.0049ZM52.0025 76.0042V80.0049H76.0025V76.0042H52.0025ZM68.0024 64.0042H64.0025V88.0042H68.0024V64.0042ZM72.0032 64.0042H68.0024V88.0042H72.0032V64.0042ZM76.0031 64.0042H72.0032V88.0042H76.0031V64.0042ZM64.0031 72.0042V76.0042H88.0031V72.0042H64.0031ZM80.0031 60.0042H76.0031V84.0042H80.0031V60.0042ZM64.004 60.0033V64.0032H88.004V60.0033H64.004ZM72.0041 72.0033H76.004V48.0033H72.0041V72.0033ZM84.0041 64.0032V60.0033H60.0041V64.0032H84.0041ZM84.0041 68.004V64.0032H60.0041V68.004H84.0041ZM84.0041 72.0039V68.004H60.0041V72.0039H84.0041ZM76.004 60.0039H72.0041V84.0039H76.004V60.0039ZM64.004 68.004V72.0039H88.004V68.004H64.004ZM64.004 64.0032V68.004H88.004V64.0032H64.004ZM68.0024 52.0025V56.0033H92.0024V52.0025H68.0024ZM68.0024 48.0026V52.0025H92.0024V48.0026H68.0024ZM84.0032 36.0026H80.0024V60.0026H84.0032V36.0026ZM96.0032 52.0025V48.0026H72.0032V52.0025H96.0032ZM96.0032 56.0033V52.0025H72.0032V56.0033H96.0032ZM96.0032 60.0032V56.0033H72.0032V60.0032H96.0032ZM96.0032 64.0032V60.0032H72.0032V64.0032H96.0032ZM96.0032 68.0039V64.0032H72.0032V68.0039H96.0032ZM96.0032 72.0039V68.0039H72.0032V72.0039H96.0032ZM80.0024 84.0039H84.0032V60.0038H80.0024V84.0039ZM68.0024 68.0039V72.0039H92.0024V68.0039H68.0024ZM68.0024 64.0032V68.0039H92.0024V64.0032H68.0024ZM68.0024 60.0032V64.0032H92.0024V60.0032H68.0024ZM76.0025 72.0032H80.0024V48.0032H76.0025V72.0032ZM64.0025 56.0033V60.0032H88.0025V56.0033H64.0025ZM80.0024 44.0033H76.0025V68.0033H80.0024V44.0033ZM92.0039 56.0025H96.0047V32.0025H92.0039V56.0025ZM88.004 56.0025H92.0039V32.0025H88.004V56.0025ZM84.0041 56.0025H88.004V32.0025H84.0041V56.0025ZM96.0041 48.0024V44.0025H72.0041V48.0024H96.0041ZM88.004 36.0024H84.0041V60.0024H88.004V36.0024ZM92.0039 36.0024H88.004V60.0024H92.0039V36.0024ZM96.0047 36.0024H92.0039V60.0024H96.0047V36.0024ZM100.005 36.0024H96.0047V60.0024H100.005V36.0024ZM104.005 36.0024H100.005V60.0024H104.005V36.0024ZM92.0046 44.0025V48.0024H116.005V44.0025H92.0046ZM100.005 56.0025H104.005V32.0025H100.005V56.0025ZM96.0047 56.0025H100.005V32.0025H96.0047V56.0025ZM36.0008 28.0011V24.0012H12.0008V28.0011H36.0008ZM36.0008 32.0019V28.0011H12.0008V32.0019H36.0008ZM36.0008 36.0018V32.0019H12.0008V36.0018H36.0008ZM20 48.0018H24.0008V24.0018H20V48.0018ZM8 32.0019V36.0018H32V32.0019H8ZM8 28.0011V32.0019H32V28.0011H8ZM8 24.0012V28.0011H32V24.0012H8ZM24.0008 12.0012H20V36.0012H24.0008V12.0012Z" fill="black" mask="url(#path-3-inside-1_1693_8774)"/>
<path d="M38.6667 115.974V117.974H40.6667H52.7869H54.7869V115.974V95.9483V93.9483H52.7869H50.7468V91.9814V89.9814H48.7468H40.6667H38.6667V91.9814V96.0439V97.9629V98.0439V99.9629V101.93H36.6748H34.6748V103.93V111.959V113.959H36.6748H38.6667V115.974ZM42.7629 109.911V106.025H46.6987V109.911H42.7629Z" fill="white" stroke="black" stroke-width="4"/>
<path d="M62.4431 109.911V98.0439H66.3789V109.911H62.4431ZM58.3469 91.9814V93.9483H56.355H54.355V95.9483V111.959V113.959H56.355H58.3469V115.974V117.893V117.974V119.893V123.955V125.955H60.3469H68.427H70.427V123.955V121.941H72.467H74.467V119.941V91.9814V89.9814H72.467H60.3469H58.3469V91.9814Z" fill="white" stroke="black" stroke-width="4"/>
<path d="M82.4216 109.911V98.0439H86.3574V109.911H82.4216ZM78.3254 91.9814V93.9483H76.3335H74.3335V95.9483V111.959V113.959H76.3335H78.3254V115.974V117.893V117.974V119.893V123.955V125.955H80.3254H88.4055H90.4055V123.955V121.941H92.4455H94.4455V119.941V91.9814V89.9814H92.4455H80.3254H78.3254V91.9814Z" fill="white" stroke="black" stroke-width="4"/>
<path d="M94.3101 115.974V117.974H96.3101H100.398H102.398V115.974V84V82H100.398H96.3101H94.3101V84V115.974Z" fill="white" stroke="black" stroke-width="4"/>
<path d="M113.912 107.897V109.911H109.976V106.025H113.912V107.897ZM117.96 93.9483V91.9814V89.9814H115.96H107.88H105.88V91.9814V93.9483H103.888H101.888V95.9483V111.959V113.959H103.888H105.88V115.974V117.974H107.88H115.96H117.96V115.974V113.959H120H122V111.959V107.897V106.025V105.897V104.025V95.9483V93.9483H120H117.96Z" fill="white" stroke="black" stroke-width="4"/>
<path d="M34.136 102.296H36.176H38.176V100.296V92.2666V90.2666H36.176H32.0879H30.0879V92.2666V98.2481H28.0478H26.1521H26.0478H24.1521H22.112V92.2666V90.2666H20.112H16.0239H14.0239V92.2666V98.2481H12.1282H10.0881V92.2666V90.2666H8.08813H4H2V92.2666V100.296V102.296H4H6.04004V108.277V110.277H8.04004H10.032V116.259V118.259H12.032H16.1201H18.1201V116.259V110.277H22.0559V116.259V118.259H24.0559H28.144H30.144V116.259V110.277H32.136H34.136V108.277V102.296Z" fill="white" stroke="black" stroke-width="4"/>
</svg>
