<svg width="292" height="102" viewBox="0 0 292 102" fill="none" xmlns="http://www.w3.org/2000/svg">
<path d="M92.2459 81.2622V71.1623H82.2031V50.9625H92.2459V40.9829H112.452V31.1234H92.2459V20.9033H112.573V30.883H122.737V81.2622H92.2459ZM112.452 51.203H92.4879V71.042H112.452V51.203Z" fill="#2400FF"/>
<path d="M162.083 91.2418V101.342H141.756V91.1216H161.962V81.2622H141.756V71.1623H131.713V30.883H141.756V20.9033H172.247V91.2418H162.083ZM161.962 31.1234H141.998V71.042H161.962V31.1234Z" fill="#2400FF"/>
<path d="M212.342 91.2418V101.342H192.014V91.1216H212.221V81.2622H192.014V71.1623H181.972V30.883H192.014V20.9033H222.506V91.2418H212.342ZM212.221 31.1234H192.256V71.042H212.221V31.1234Z" fill="#2400FF"/>
<path d="M232.231 81.2626V0.824219H242.516V81.2626H232.231Z" fill="#2400FF"/>
<path d="M281.665 71.1623V81.2622H261.338V71.1623H251.295V30.883H261.338V20.9033H281.665V30.883H291.829V51.203H261.58V71.042H281.544V60.9422H291.829V71.1623H281.665ZM281.544 31.1234H261.58V40.9829H281.544V31.1234Z" fill="#2400FF"/>
<path d="M70.7834 41.8209V61.9004H60.7407V81.9799H50.4559V61.9004H30.4913V81.9799H20.2066V61.9004H10.1638V41.8209H0V21.6211H10.2848V41.7006H20.4485V61.6599H30.2493V51.6803H40.4131V41.8209H30.2493V21.6211H40.5341V41.7006H50.6979V61.6599H60.4986V41.7006H70.6624V21.6211H80.9472V41.8209H70.7834Z" fill="#2400FF"/>
</svg>
