<svg width="60" height="52" viewBox="0 0 60 52" fill="none" xmlns="http://www.w3.org/2000/svg">
<rect x="28" y="48" width="4" height="4" fill="black"/>
<rect y="20" width="4" height="4" fill="black"/>
<rect y="8" width="4" height="12" fill="black"/>
<rect x="4" y="4" width="4" height="4" fill="black"/>
<rect x="8" width="4" height="4" fill="black"/>
<rect x="20" width="4" height="4" fill="black"/>
<rect x="24" y="4" width="4" height="4" fill="black"/>
<rect x="28" y="8" width="4" height="4" fill="black"/>
<rect x="32" y="4" width="4" height="4" fill="black"/>
<rect width="4" height="4" transform="matrix(-1 0 0 1 56 4)" fill="black"/>
<rect x="36" width="4" height="4" fill="black"/>
<rect width="4" height="4" transform="matrix(-1 0 0 1 52 0)" fill="black"/>
<rect x="40" width="8" height="4" fill="black"/>
<rect x="12" width="8" height="4" fill="black"/>
<rect x="56" y="8" width="4" height="4.57143" fill="black"/>
<rect width="4" height="11.4286" transform="matrix(-1 0 0 1 60 12.5713)" fill="black"/>
<rect x="4" y="24" width="4" height="4" fill="black"/>
<rect width="4" height="4" transform="matrix(-1 0 0 1 56 24)" fill="black"/>
<rect x="8" y="28" width="4" height="4" fill="black"/>
<rect width="4" height="4" transform="matrix(-1 0 0 1 52 28)" fill="black"/>
<rect x="12" y="32" width="4" height="4" fill="black"/>
<rect width="4" height="4" transform="matrix(-1 0 0 1 48 32)" fill="black"/>
<rect x="16" y="36" width="4" height="4" fill="black"/>
<rect width="4" height="4" transform="matrix(-1 0 0 1 44 36)" fill="black"/>
<rect x="20" y="40" width="4" height="4" fill="black"/>
<rect width="4" height="4" transform="matrix(-1 0 0 1 40 40)" fill="black"/>
<rect x="24" y="44" width="4" height="4" fill="black"/>
<rect width="4" height="4" transform="matrix(-1 0 0 1 36 44)" fill="black"/>
<path d="M4 24V8H8V4H24V8H28V12H32V8H36V4H52V8H56V24H52V28H48V32H44V36H40V40H36V44H32V48H28V44H24V40H20V36H16V32H12V28H8V24H4Z" fill="#298EFF"/>
</svg>
