<svg width="44" height="64" viewBox="0 0 44 64" fill="none" xmlns="http://www.w3.org/2000/svg">
<rect x="8" y="8" width="4" height="4" fill="black"/>
<rect x="4" y="8" width="4" height="4" fill="black"/>
<rect x="36" y="8" width="4" height="4" fill="black"/>
<rect x="36" y="12" width="4" height="4" fill="black"/>
<rect x="36" y="16" width="4" height="4" fill="black"/>
<rect x="40" y="16" width="4" height="4" fill="black"/>
<rect x="40" y="20" width="4" height="4" fill="black"/>
<rect x="40" y="24" width="4" height="4" fill="black"/>
<rect x="40" y="28" width="4" height="4" fill="black"/>
<rect x="40" y="32" width="4" height="4" fill="black"/>
<rect x="36" y="32" width="4" height="4" fill="black"/>
<rect x="36" y="36" width="4" height="4" fill="black"/>
<rect x="36" y="40" width="4" height="4" fill="black"/>
<rect x="32" y="40" width="4" height="4" fill="black"/>
<rect x="32" y="44" width="4" height="4" fill="black"/>
<rect x="28" y="44" width="4" height="4" fill="black"/>
<rect x="28" y="48" width="4" height="4" fill="black"/>
<rect x="28" y="52" width="4" height="4" fill="black"/>
<rect x="24" y="52" width="4" height="4" fill="black"/>
<rect x="24" y="56" width="4" height="4" fill="black"/>
<rect x="20" y="60" width="4" height="4" fill="black"/>
<rect x="24" y="60" width="4" height="4" fill="black"/>
<rect x="4" y="12" width="4" height="4" fill="black"/>
<rect x="4" y="16" width="4" height="4" fill="black"/>
<rect y="16" width="4" height="4" fill="black"/>
<rect y="20" width="4" height="4" fill="black"/>
<rect x="16" y="16" width="4" height="4" fill="black"/>
<rect x="20" y="16" width="4" height="4" fill="black"/>
<rect x="16" y="32" width="4" height="4" fill="black"/>
<rect x="20" y="32" width="4" height="4" fill="black"/>
<rect x="24" y="32" width="4" height="4" fill="black"/>
<rect x="12" y="28" width="4" height="4" fill="black"/>
<rect x="24" y="16" width="4" height="4" fill="black"/>
<rect x="28" y="28" width="4" height="4" fill="black"/>
<rect y="24" width="4" height="4" fill="black"/>
<rect x="12" y="20" width="4" height="4" fill="black"/>
<rect x="28" y="20" width="4" height="4" fill="black"/>
<rect y="28" width="4" height="4" fill="black"/>
<rect x="12" y="24" width="4" height="4" fill="black"/>
<rect x="28" y="24" width="4" height="4" fill="black"/>
<rect y="32" width="4" height="4" fill="black"/>
<rect x="4" y="32" width="4" height="4" fill="black"/>
<rect x="4" y="36" width="4" height="4" fill="black"/>
<rect x="4" y="40" width="4" height="4" fill="black"/>
<rect x="8" y="40" width="4" height="4" fill="black"/>
<rect x="8" y="44" width="4" height="4" fill="black"/>
<rect x="12" y="44" width="4" height="4" fill="black"/>
<rect x="12" y="48" width="4" height="4" fill="black"/>
<rect x="12" y="52" width="4" height="4" fill="black"/>
<rect x="16" y="52" width="4" height="4" fill="black"/>
<rect x="16" y="56" width="4" height="4" fill="black"/>
<rect x="16" y="60" width="4" height="4" fill="black"/>
<rect x="12" y="8" width="4" height="4" fill="black"/>
<rect x="12" y="4" width="4" height="4" fill="black"/>
<rect x="16" y="4" width="4" height="4" fill="black"/>
<rect x="24" y="4" width="4" height="4" fill="black"/>
<rect x="20" y="4" width="4" height="4" fill="black"/>
<rect x="28" y="8" width="4" height="4" fill="black"/>
<rect x="28" y="4" width="4" height="4" fill="black"/>
<rect x="32" y="8" width="4" height="4" fill="black"/>
<path fill-rule="evenodd" clip-rule="evenodd" d="M40 4H4V36H12V52H16H20V60H24V52H28H32V36H40V4Z" fill="#298EFF"/>
<rect x="8" y="4" width="4" height="4" fill="black"/>
<rect x="4" y="4" width="4" height="4" fill="black"/>
<rect x="36" y="4" width="4" height="4" fill="black"/>
<rect x="36" y="8" width="4" height="4" fill="black"/>
<rect x="36" y="12" width="4" height="4" fill="black"/>
<rect x="40" y="12" width="4" height="4" fill="black"/>
<rect x="40" y="16" width="4" height="4" fill="black"/>
<rect x="40" y="20" width="4" height="4" fill="black"/>
<rect x="40" y="24" width="4" height="4" fill="black"/>
<rect x="40" y="28" width="4" height="4" fill="black"/>
<rect x="36" y="28" width="4" height="4" fill="black"/>
<rect x="36" y="32" width="4" height="4" fill="black"/>
<rect x="36" y="36" width="4" height="4" fill="black"/>
<rect x="32" y="36" width="4" height="4" fill="black"/>
<rect x="32" y="40" width="4" height="4" fill="black"/>
<rect x="28" y="40" width="4" height="4" fill="black"/>
<rect x="28" y="44" width="4" height="4" fill="black"/>
<rect x="28" y="48" width="4" height="4" fill="black"/>
<rect x="24" y="48" width="4" height="4" fill="black"/>
<rect x="24" y="52" width="4" height="4" fill="black"/>
<rect x="20" y="56" width="4" height="4" fill="black"/>
<rect x="24" y="56" width="4" height="4" fill="black"/>
<rect x="4" y="8" width="4" height="4" fill="black"/>
<rect x="4" y="12" width="4" height="4" fill="black"/>
<rect y="12" width="4" height="4" fill="black"/>
<rect y="16" width="4" height="4" fill="black"/>
<rect x="16" y="12" width="4" height="4" fill="black"/>
<rect x="20" y="12" width="4" height="4" fill="black"/>
<rect x="16" y="28" width="4" height="4" fill="black"/>
<rect x="20" y="28" width="4" height="4" fill="black"/>
<rect x="24" y="28" width="4" height="4" fill="black"/>
<rect x="12" y="24" width="4" height="4" fill="black"/>
<rect x="24" y="12" width="4" height="4" fill="black"/>
<rect x="28" y="24" width="4" height="4" fill="black"/>
<rect y="20" width="4" height="4" fill="black"/>
<rect x="12" y="16" width="4" height="4" fill="black"/>
<rect x="28" y="16" width="4" height="4" fill="black"/>
<rect y="24" width="4" height="4" fill="black"/>
<rect x="12" y="20" width="4" height="4" fill="black"/>
<rect x="28" y="20" width="4" height="4" fill="black"/>
<rect y="28" width="4" height="4" fill="black"/>
<rect x="4" y="28" width="4" height="4" fill="black"/>
<rect x="4" y="32" width="4" height="4" fill="black"/>
<rect x="4" y="36" width="4" height="4" fill="black"/>
<rect x="8" y="36" width="4" height="4" fill="black"/>
<rect x="8" y="40" width="4" height="4" fill="black"/>
<rect x="12" y="40" width="4" height="4" fill="black"/>
<rect x="12" y="44" width="4" height="4" fill="black"/>
<rect x="12" y="48" width="4" height="4" fill="black"/>
<rect x="16" y="48" width="4" height="4" fill="black"/>
<rect x="16" y="52" width="4" height="4" fill="black"/>
<rect x="16" y="56" width="4" height="4" fill="black"/>
<rect x="12" y="4" width="4" height="4" fill="black"/>
<rect x="12" width="4" height="4" fill="black"/>
<rect x="16" width="4" height="4" fill="black"/>
<rect x="24" width="4" height="4" fill="black"/>
<rect x="20" width="4" height="4" fill="black"/>
<rect x="28" y="4" width="4" height="4" fill="black"/>
<rect x="28" width="4" height="4" fill="black"/>
<rect x="32" y="4" width="4" height="4" fill="black"/>
<rect x="16" y="16" width="12" height="12" fill="white"/>
</svg>
